<svg width="53" height="54" viewBox="0 0 53 54" fill="none" xmlns="http://www.w3.org/2000/svg">
<g clip-path="url(#clip0_1165_7050)">
<path d="M25.0446 0.894287C26.1936 0.894287 27.3553 0.894287 28.5043 0.894287C28.6447 0.932586 28.7979 0.970885 28.9384 0.996418C29.8575 1.12408 30.8022 1.18791 31.7087 1.36664C38.1174 2.64328 43.3516 5.87316 47.3857 11.0052C50.0411 14.3883 51.739 18.2054 52.454 22.4566C52.6072 23.3886 52.722 24.3333 52.8625 25.2652C52.8625 26.4142 52.8625 27.5759 52.8625 28.7249C52.7859 29.3632 52.722 30.0015 52.6199 30.6399C51.8795 35.6826 49.9262 40.2018 46.5304 44.0062C40.2876 51.0277 32.4363 53.964 23.1297 52.8278C18.087 52.215 13.5932 50.1724 9.78884 46.802C2.34607 40.1763 -0.56466 31.8654 1.14603 22.0736C2.28223 15.5756 5.67808 10.3286 10.8867 6.28168C14.2443 3.67735 18.0231 2.00496 22.2233 1.30281C23.168 1.13685 24.1127 1.02195 25.0446 0.894287ZM20.5509 29.542C13.9124 24.7418 15.0613 16.3799 19.0955 12.5755C23.551 8.37536 30.4193 8.46473 34.6449 12.7415C38.8195 16.9799 39.2408 25.0227 32.9981 29.542C35.7683 30.6016 38.1301 32.1974 40.0961 34.3676C42.0622 36.5507 43.4154 39.0912 44.1686 41.9636C51.4199 33.9591 52.4795 19.5842 42.4707 10.1499C32.7938 1.03472 17.0912 2.17092 8.84413 12.5627C0.635375 22.9035 3.55887 35.8102 9.39309 41.9125C11.091 35.9762 14.8188 31.8654 20.5509 29.542ZM27.3681 50.0192C28.0702 49.9426 29.3596 49.8915 30.6363 49.6745C34.5938 49.0106 38.1429 47.3893 41.2579 44.8616C41.3983 44.7467 41.5004 44.4658 41.4749 44.2743C41.1047 41.5168 40.0195 39.0656 38.245 36.9337C35.6152 33.7804 32.2193 31.9676 28.1341 31.5973C24.4574 31.2654 21.0615 32.1973 18.0742 34.4059C14.7294 36.8826 12.7123 40.1891 12.1123 44.3254C12.0868 44.4913 12.1889 44.7594 12.3293 44.8616C16.5295 48.2574 21.3679 49.9553 27.3681 50.0192ZM18.8657 20.3757C18.7508 24.5886 22.2488 28.2143 26.551 28.3291C31.0065 28.4568 34.6194 24.9844 34.696 20.4778C34.7726 16.2139 31.2491 12.6266 26.883 12.5117C22.5807 12.4095 18.9934 15.933 18.8657 20.3757Z" fill="white"/>
</g>
<defs>
<clipPath id="clip0_1165_7050">
<rect width="52.176" height="52.1633" fill="white" transform="translate(0.699219 0.894287)"/>
</clipPath>
</defs>
</svg>
