<svg width="54" height="53" viewBox="0 0 54 53" fill="none" xmlns="http://www.w3.org/2000/svg">
<g clip-path="url(#clip0_1165_7045)">
<path d="M28.7217 40.4596C29.108 43.6063 29.5091 46.7234 29.8805 49.8404C29.9399 50.328 29.9399 50.845 29.8062 51.303C29.5536 52.2041 28.6177 52.603 27.7263 52.2928C25.8545 51.6575 23.9974 51.0075 22.1107 50.387C21.4422 50.1655 21.0114 49.7666 20.7142 49.1461C19.6594 46.9154 18.5749 44.6995 17.535 42.4688C17.3716 42.1142 17.1785 42.0108 16.8219 42.0847C15.3066 42.3506 13.7467 42.4244 12.2908 42.8972C9.0967 43.9313 6.794 42.5426 4.83298 40.3267C2.18859 37.3573 0.821818 33.797 0.331565 29.8822C0.123578 28.1833 0.212715 26.4992 0.747537 24.8594C1.32693 23.131 2.41143 21.9787 4.17931 21.2991C10.3149 18.9059 15.9305 15.5672 21.1451 11.5785C24.0272 9.37736 26.7013 6.93982 29.1228 4.2216C29.4942 3.79319 29.7765 3.29091 30.1479 2.84772C32.1238 0.43973 35.1247 -0.358009 38.2297 0.676097C40.6809 1.50338 42.6419 3.05454 44.3801 4.90116C47.589 8.31371 49.7432 12.3615 51.3922 16.7047C52.9373 20.7821 53.7692 24.9776 53.7098 29.3356C53.6801 31.98 53.175 34.5357 51.8082 36.8403C50.5454 38.9823 48.7627 40.3858 46.1777 40.5483C45.6429 40.5778 45.1081 40.5335 44.5732 40.4892C42.9688 40.3562 41.3643 40.0903 39.7747 40.0903C36.1795 40.1199 32.5992 40.2824 29.004 40.3858C28.9148 40.4153 28.8257 40.4301 28.7217 40.4596ZM37.056 36.7664C30.4896 29.3208 27.3698 20.7525 27.3995 10.9433C27.1915 11.1206 27.043 11.2388 26.9093 11.3717C20.4914 17.015 13.301 21.4616 5.35295 24.6526C4.61014 24.948 4.19417 25.406 4.03075 26.1299C3.9119 26.6322 3.82276 27.1344 3.79305 27.6515C3.62963 30.872 4.53586 33.8118 6.33346 36.4562C7.00198 37.4312 7.86364 38.288 8.71044 39.1301C9.26012 39.6619 9.97322 39.8096 10.7755 39.6619C14.2815 38.9971 17.7727 38.2437 21.2936 37.771C24.9334 37.2835 28.6177 37.0471 32.2872 36.7959C33.8768 36.663 35.4664 36.7664 37.056 36.7664ZM38.6605 32.8663C39.4479 33.6198 40.1907 34.3584 40.9929 35.0527C41.8991 35.8209 42.8945 36.4562 44.0384 36.8107C45.8212 37.3573 47.2325 36.8994 48.3021 35.3777C48.6587 34.8755 48.9558 34.2993 49.1638 33.7232C50.0849 31.0936 50.174 28.3901 49.8917 25.6571C49.5946 22.7469 48.7775 19.9696 47.7079 17.2513C46.252 13.5876 44.395 10.1751 41.6614 7.29437C40.3838 5.95004 38.9725 4.75343 37.1897 4.10342C35.3178 3.43864 33.8768 3.88183 32.7329 5.49208C32.4952 5.81708 32.2575 6.17163 32.1386 6.54096C31.8118 7.60461 31.5147 8.68303 31.2621 9.77623C31.1135 10.4558 31.069 11.1649 30.9798 11.8592C33.3123 12.1842 34.5156 12.7604 35.9864 14.4297C38.8982 17.7241 40.5918 21.565 40.8889 25.9526C41.082 28.4788 40.6661 30.872 38.6605 32.8663ZM31.1878 15.4638C31.8415 20.8412 33.6837 25.6424 36.5955 30.2072C36.7886 29.7345 36.9669 29.3652 37.0709 28.9811C37.5017 27.2969 37.3234 25.6128 36.952 23.9583C36.3429 21.2548 35.2584 18.7877 33.3271 16.7491C32.7774 16.1581 32.1386 15.7002 31.1878 15.4638ZM21.0708 41.3165C21.9473 43.2369 22.7941 45.0836 23.626 46.9154C23.6706 47.004 23.7449 47.1222 23.834 47.1518C24.5471 47.3734 25.2454 47.595 26.0179 47.8166C25.7208 45.4233 25.4236 43.104 25.1265 40.7846C23.7597 40.9619 22.4673 41.1244 21.0708 41.3165Z" fill="white"/>
</g>
<defs>
<clipPath id="clip0_1165_7045">
<rect width="53.4674" height="52.1633" fill="white" transform="translate(0.242432 0.23291)"/>
</clipPath>
</defs>
</svg>
