<svg width="14" height="14" viewBox="0 0 14 14" fill="none" xmlns="http://www.w3.org/2000/svg">
<path d="M13.9685 8.50555V13.659H10.9806V8.85093C10.9806 7.64367 10.5492 6.81922 9.46741 6.81922C8.64185 6.81922 8.15141 7.37427 7.93483 7.91172C7.85617 8.1038 7.8359 8.37052 7.8359 8.63991V13.6588H4.84782C4.84782 13.6588 4.88793 5.51547 4.84782 4.67253H7.83612V5.94597C7.8301 5.95599 7.82163 5.9658 7.81629 5.97538H7.83612V5.94597C8.23319 5.33498 8.94133 4.46151 10.5289 4.46151C12.4947 4.46151 13.9685 5.74587 13.9685 8.50555ZM1.72204 0.34082C0.699945 0.34082 0.03125 1.01174 0.03125 1.89324C0.03125 2.75601 0.68056 3.44632 1.68282 3.44632H1.70221C2.74436 3.44632 3.39233 2.75601 3.39233 1.89324C3.3725 1.01174 2.74436 0.34082 1.72204 0.34082ZM0.208841 13.659H3.1958V4.67253H0.208841V13.659Z" fill="#F1F2F2"/>
</svg>
