<svg width="122" height="56" viewBox="0 0 122 56" fill="none" xmlns="http://www.w3.org/2000/svg">
<g clip-path="url(#clip0_1169_9381)">
<path d="M18.6188 43.6831C18.6188 40.9618 18.6379 38.2451 18.6093 35.5238C18.5949 34.2009 19.0347 33.1285 20.1772 32.4151C20.5596 32.1741 20.5261 31.8812 20.5261 31.5457C20.5213 30.8654 20.7412 30.067 20.4496 29.5378C20.1437 28.9756 19.2211 29.1835 18.5806 29.0276C11.6397 27.3692 6.96472 21.3596 7.10334 14.2256C7.23241 7.52144 12.3042 1.64411 19.1303 0.288164C27.2375 -1.3229 35.0675 4.03 36.6354 12.2554C38.1124 20.0131 32.5818 27.8039 24.6275 29.1693C23.4181 29.3772 23.442 29.3772 23.4086 30.5961C23.3847 31.5079 23.3655 32.3017 24.3311 32.9159C25.0912 33.3978 25.3254 34.3379 25.3254 35.2592C25.3254 40.8956 25.335 46.5367 25.3206 52.1731C25.3159 54.1527 23.8436 55.6078 21.9315 55.5842C20.0385 55.5653 18.6379 54.1385 18.6236 52.1825C18.6093 49.3525 18.6188 46.5178 18.6188 43.6831Z" fill="black"/>
<path d="M61.2963 55.6268C59.389 55.6268 57.7542 55.6079 56.1194 55.6363C55.6031 55.6457 55.4358 55.5229 55.4358 54.9843C55.4549 47.6187 55.4501 40.2532 55.4453 32.8829C55.4453 32.5333 55.3975 32.2215 55.9473 32.2356C59.3555 32.3112 62.7686 32.0939 66.1769 32.3632C72.219 32.8451 76.8128 37.409 77.1092 43.1824C77.4199 49.2204 73.328 54.2709 67.2811 55.3481C65.2017 55.7261 63.1128 55.589 61.2963 55.6268Z" fill="black"/>
<path d="M44.8287 44.902C44.8287 40.9949 44.8478 37.0829 44.8096 33.1757C44.8048 32.4529 44.9434 32.1741 45.7417 32.2214C46.9415 32.297 48.1509 32.2781 49.3508 32.2261C50.0152 32.1978 50.2255 32.3773 50.216 33.0623C50.1825 36.7144 50.2016 40.3712 50.2016 44.0233C50.2016 47.647 50.1873 51.2755 50.216 54.8992C50.2207 55.5275 50.106 55.7638 49.389 55.7874C48.4808 55.8157 47.8546 55.5228 47.2236 54.8897C43.5237 51.1762 39.7808 47.5053 36.0523 43.8201C35.8515 43.6217 35.6459 43.4327 35.4261 43.2296C35.1392 43.5083 35.2731 43.8343 35.2731 44.1225C35.2635 47.6895 35.2492 51.2613 35.2827 54.8283C35.2874 55.4614 35.1201 55.6598 34.47 55.6362C33.1555 55.5842 31.8314 55.6031 30.5168 55.6315C30.0388 55.6409 29.8667 55.4992 29.8667 55.0078C29.881 47.5856 29.881 40.1633 29.8667 32.7411C29.8667 32.2403 30.0627 32.16 30.5216 32.1174C31.621 32.0182 32.4193 32.3348 33.2128 33.171C36.8075 36.9884 40.4931 40.7161 44.1451 44.4768C44.3172 44.6516 44.4176 44.8926 44.5467 45.1052C44.6423 45.0391 44.7379 44.9729 44.8287 44.902Z" fill="black"/>
<path d="M100.676 43.995C100.661 37.9145 105.456 32.675 111.598 32.0135C114.987 31.645 118.205 32.1931 121.283 33.6199C121.89 33.8986 122.072 34.1915 121.756 34.8435C121.254 35.8877 120.843 36.979 120.437 38.0657C120.25 38.5665 120.05 38.609 119.562 38.3822C117.602 37.4704 115.556 36.8845 113.353 36.9649C109.801 37.0971 107.21 39.124 106.474 42.3886C105.494 46.7399 108.62 50.7463 113.138 50.8928C115.499 50.9684 117.75 50.5007 119.839 49.3951C120.346 49.1258 120.518 49.2298 120.681 49.7353C121.054 50.8645 121.445 51.9889 121.9 53.085C122.115 53.6094 121.957 53.8504 121.512 54.096C119.945 54.9654 118.262 55.4898 116.498 55.7685C113.338 56.2599 110.269 55.9528 107.353 54.611C103.133 52.6787 100.685 48.7573 100.676 43.995Z" fill="#E43D51"/>
<path d="M88.9306 46.1777C90.2499 43.2863 91.5119 40.5319 92.7691 37.7727C93.5243 36.1239 94.2844 34.475 95.011 32.812C95.1974 32.382 95.4508 32.2167 95.9192 32.2214C97.3533 32.245 98.7873 32.2545 100.217 32.2167C100.91 32.1978 100.91 32.4198 100.661 32.9537C98.1085 38.4295 95.5703 43.9099 93.032 49.3904C92.1381 51.318 91.1964 53.2314 90.3742 55.1921C89.9679 56.1607 89.2222 55.778 88.5768 55.8677C87.9984 55.9481 87.683 55.7449 87.42 55.1732C84.0357 47.8029 80.613 40.4516 77.2048 33.0907C76.8128 32.245 76.8319 32.2356 77.788 32.2356C79.136 32.2309 80.484 32.2687 81.8272 32.2214C82.4152 32.2025 82.6877 32.4104 82.9171 32.9206C84.7575 37.0357 86.6265 41.1366 88.4908 45.2422C88.6151 45.4974 88.7346 45.7525 88.9306 46.1777Z" fill="#E43D51"/>
<path d="M0.0237894 43.9382C0.0237894 40.3145 0.0333497 36.686 0.014229 33.0623C0.00944879 32.4812 0.0811516 32.2261 0.783839 32.2308C5.56881 32.2638 10.3586 32.2591 15.1435 32.2355C15.765 32.2308 15.9084 32.4245 15.8892 33.0009C15.8462 34.1915 15.8462 35.382 15.8892 36.5679C15.9131 37.1349 15.7315 37.2813 15.1722 37.2766C12.1607 37.253 9.15395 37.2813 6.14243 37.2482C5.50667 37.2388 5.30112 37.39 5.33458 38.0372C5.39194 39.1664 5.38716 40.305 5.33458 41.4342C5.3059 42.0625 5.46842 42.2515 6.13287 42.2421C8.74285 42.1996 11.3481 42.2374 13.958 42.2137C14.4934 42.209 14.7133 42.313 14.6846 42.8988C14.6368 44.0563 14.6368 45.2233 14.6846 46.3808C14.7085 46.9666 14.4934 47.0753 13.958 47.0706C11.3481 47.0469 8.74285 47.0847 6.13287 47.0422C5.46364 47.0328 5.32502 47.2359 5.33458 47.8548C5.37282 50.1226 5.32024 52.3857 5.36804 54.6535C5.38238 55.3952 5.2342 55.707 4.40244 55.6503C3.25998 55.57 2.10795 55.5889 0.965487 55.6456C0.234118 55.6834 -0.00489178 55.5133 0.0046686 54.7338C0.0476903 51.1337 0.0237894 47.5336 0.0237894 43.9382Z" fill="black"/>
<path d="M33.0168 14.6981C33.0216 20.7172 28.0693 25.6071 21.9698 25.6071C15.8655 25.6071 10.9037 20.7172 10.918 14.7028C10.9276 8.71211 15.9276 3.80331 22.008 3.81276C28.0263 3.82221 33.012 8.74991 33.0168 14.6981Z" fill="#E43D51"/>
<path d="M60.8232 43.9381C60.8232 41.9538 60.8376 39.9742 60.8137 37.9899C60.8089 37.475 60.8949 37.2104 61.5068 37.2482C63.132 37.3474 64.7764 37.0876 66.3874 37.4655C69.7335 38.2498 71.7555 41.1648 71.4448 44.7413C71.1676 47.869 68.4572 50.4297 65.2019 50.5808C63.9447 50.6423 62.6779 50.5808 61.4207 50.6234C60.8997 50.6423 60.8089 50.4249 60.8137 49.9714C60.8328 47.9587 60.8232 45.9508 60.8232 43.9381Z" fill="white"/>
<path d="M31.0855 14.1783C31.0472 14.5184 31.0807 14.8539 30.9612 15.1232C30.7939 15.5011 30.4497 15.7563 29.9956 15.6618C29.4028 15.5389 29.1495 15.1185 29.1447 14.5468C29.1447 12.8932 28.5424 11.4664 27.5194 10.186C27.0892 9.64743 26.5586 9.22695 26.0089 8.81591C25.5213 8.45212 25.2919 7.97967 25.7125 7.43162C26.1188 6.9072 26.6112 6.93554 27.1418 7.29933C29.5797 8.98127 30.8226 11.3152 31.0855 14.1783Z" fill="black"/>
<path d="M23.3465 7.72926C22.8637 7.67729 22.3809 7.6206 21.9029 7.56863C21.3723 7.50721 21.0712 7.21428 21.0377 6.68986C21.0042 6.14181 21.3389 5.82999 21.8264 5.7355C22.5721 5.59377 23.3083 5.76385 24.0158 5.9859C24.4842 6.13236 24.6276 6.54812 24.5272 7.02058C24.3791 7.64894 23.9202 7.78595 23.3465 7.72926Z" fill="black"/>
</g>
<defs>
<clipPath id="clip0_1169_9381">
<rect width="122" height="56" fill="white"/>
</clipPath>
</defs>
</svg>
