<svg width="55" height="55" viewBox="0 0 55 55" fill="none" xmlns="http://www.w3.org/2000/svg">
<path d="M27.5797 54.2281C19.6526 54.2281 11.7254 54.1984 3.79827 54.2579C2.13253 54.2727 0.82373 53.0086 0.82373 51.2685C0.868349 35.429 0.838603 19.5747 0.838603 3.73532C0.838603 1.86136 1.90944 0.790527 3.76852 0.790527C19.6377 0.790527 35.5069 0.790527 51.376 0.790527C53.2351 0.790527 54.306 1.86136 54.306 3.72045C54.306 19.5896 54.306 35.4588 54.306 51.3131C54.306 53.1424 53.2351 54.2281 51.4058 54.2281C43.4638 54.2281 35.5217 54.2281 27.5797 54.2281ZM52.4617 4.3451C52.6551 2.9322 52.3725 2.57525 51.0191 2.57525C35.3581 2.57525 19.6972 2.57525 4.02136 2.57525C2.86129 2.57525 2.62333 2.81321 2.62333 3.97328C2.62333 19.6789 2.62333 35.3695 2.62333 51.0751C2.62333 52.2352 2.86129 52.4731 4.02136 52.4731C19.7269 52.4731 35.4176 52.4731 51.1232 52.4731C52.2535 52.4731 52.5064 52.2203 52.5064 51.1197C52.5064 36.3511 52.5064 21.5826 52.5064 6.81397C52.5064 6.62062 52.5064 6.41241 52.5064 6.15957C40.0133 6.15957 27.5648 6.15957 15.1313 6.15957C15.1313 5.53492 15.1313 4.96976 15.1313 4.37485C27.6095 4.3451 40.043 4.3451 52.4617 4.3451Z" fill="white"/>
<path d="M31.9969 30.2235C31.9969 30.8036 31.9969 31.3539 31.9969 31.9636C23.9953 31.9636 16.0087 31.9636 7.99233 31.9636C7.99233 33.1683 7.99233 34.3135 7.99233 35.5033C18.2991 35.5033 28.6059 35.5033 38.9722 35.5033C38.3326 33.7632 37.708 32.038 37.0536 30.2533C36.4141 30.6846 35.8191 31.0713 35.2391 31.4877C34.8375 31.7703 34.436 31.9785 33.9601 31.6513C33.499 31.3241 33.5436 30.8779 33.6626 30.402C34.3616 27.5465 35.0309 24.676 35.715 21.8205C35.7448 21.7164 35.7745 21.6122 35.8043 21.4933C36.0422 20.6158 36.652 20.3927 37.3956 20.9281C38.9127 22.0287 40.4297 23.1293 41.9318 24.2447C42.8837 24.9437 43.8504 25.6427 44.8023 26.3418C45.1889 26.6243 45.4864 26.9515 45.3525 27.4572C45.2038 27.9926 44.7576 28.1265 44.2817 28.1711C43.5827 28.2455 42.8837 28.3198 42.1252 28.3942C42.1847 28.6173 42.2293 28.7958 42.2888 28.9594C42.8539 30.4912 43.4042 32.0231 43.9694 33.5401C44.3709 34.6407 44.252 34.9084 43.1365 35.3249C43.0324 35.3695 42.9432 35.4141 42.7201 35.5033C44.2668 35.5033 45.6797 35.5033 47.1224 35.5033C47.1224 34.3433 47.1224 33.1832 47.1224 31.9785C46.5572 31.9785 46.0069 31.9785 45.412 31.9785C45.412 31.3687 45.412 30.8184 45.412 30.1938C46.3341 30.1938 47.2562 30.164 48.1784 30.2087C48.6394 30.2235 48.922 30.5656 48.922 31.0415C48.9369 32.856 48.9369 34.6853 48.922 36.4998C48.922 36.9906 48.5948 37.2583 48.104 37.3178C47.9553 37.3327 47.8065 37.3178 47.6578 37.3178C34.2575 37.3178 20.8572 37.3178 7.45691 37.3178C6.41582 37.3178 6.17786 37.0799 6.17786 36.0536C6.17786 34.4325 6.17786 32.8263 6.17786 31.2051C6.17786 30.521 6.49018 30.1938 7.14458 30.1938C15.3692 30.1938 23.5938 30.1938 31.8184 30.1938C31.863 30.1938 31.9076 30.2087 31.9969 30.2235ZM35.8935 28.8255C36.2505 28.5875 36.5033 28.4239 36.7412 28.2603C37.5741 27.7101 38.1095 27.8737 38.4516 28.7958C39.0614 30.4466 39.6563 32.0975 40.2661 33.7484C40.3404 33.9417 40.4297 34.1351 40.5189 34.3581C41.0989 34.1351 41.6046 33.9417 42.1252 33.7484C42.0657 33.555 42.0211 33.436 41.9764 33.3171C41.3369 31.5621 40.6825 29.8071 40.043 28.0521C39.7753 27.3085 40.0579 26.8326 40.8461 26.6987C41.2031 26.6392 41.56 26.6095 42.0508 26.5351C40.3999 25.3304 38.8532 24.2001 37.2618 23.04C36.8156 24.9883 36.3694 26.8326 35.8935 28.8255Z" fill="white"/>
<path d="M27.5499 50.6736C20.8424 50.6736 14.1496 50.6736 7.44206 50.6736C6.43071 50.6736 6.19275 50.4356 6.19275 49.4391C6.19275 47.8478 6.19275 46.2415 6.19275 44.6501C6.19275 43.847 6.4902 43.5496 7.29333 43.5496C20.8126 43.5496 34.317 43.5496 47.8363 43.5496C48.6543 43.5496 48.9518 43.847 48.9518 44.6353C48.9518 46.2713 48.9518 47.9073 48.9518 49.5284C48.9518 50.3761 48.6692 50.6587 47.8214 50.6587C41.0544 50.6736 34.3022 50.6736 27.5499 50.6736ZM7.99235 48.8591C21.0654 48.8591 34.1088 48.8591 47.1224 48.8591C47.1224 47.6693 47.1224 46.5092 47.1224 45.364C34.0493 45.364 21.0357 45.364 7.99235 45.364C7.99235 46.5241 7.99235 47.6693 7.99235 48.8591Z" fill="white"/>
<path d="M7.99235 18.6377C7.99235 19.8275 7.99235 20.9578 7.99235 22.1476C16.5888 22.1476 25.1554 22.1476 33.7667 22.1476C33.7667 22.7574 33.7667 23.3077 33.7667 23.9324C33.5585 23.9324 33.3652 23.9324 33.1718 23.9324C24.5903 23.9324 16.0236 23.9324 7.44206 23.9324C6.43071 23.9324 6.19275 23.6944 6.19275 22.6979C6.19275 21.1066 6.19275 19.5003 6.19275 17.9089C6.19275 17.1058 6.4902 16.8083 7.3082 16.8083C20.8275 16.8083 34.3319 16.8083 47.8512 16.8083C48.6692 16.8083 48.9666 17.1058 48.9666 17.9089C48.9666 19.5598 48.9666 21.2107 48.9666 22.8615C48.9666 23.6349 48.6543 23.9324 47.8809 23.9324C46.7803 23.9324 45.6946 23.9324 44.5494 23.9324C44.5494 23.3523 44.5494 22.7872 44.5494 22.1625C45.4121 22.1625 46.2747 22.1625 47.1522 22.1625C47.1522 20.9578 47.1522 19.8126 47.1522 18.6228C34.1088 18.6377 21.0803 18.6377 7.99235 18.6377Z" fill="white"/>
<path d="M37.3511 9.7439C37.3511 10.3239 37.3511 10.8742 37.3511 11.4543C30.822 11.4543 24.3375 11.4543 17.8083 11.4543C17.8083 10.8891 17.8083 10.3388 17.8083 9.7439C24.3077 9.7439 30.7922 9.7439 37.3511 9.7439Z" fill="white"/>
<path d="M6.20764 28.3644C6.20764 27.7844 6.20764 27.249 6.20764 26.6689C10.3274 26.6689 14.4471 26.6689 18.6263 26.6689C18.6263 27.2044 18.6263 27.7695 18.6263 28.3644C14.5066 28.3644 10.3869 28.3644 6.20764 28.3644Z" fill="white"/>
<path d="M18.6412 40.0247C18.6412 40.6047 18.6412 41.155 18.6412 41.735C14.4918 41.735 10.372 41.735 6.22253 41.735C6.22253 41.1699 6.22253 40.6196 6.22253 40.0247C10.3423 40.0247 14.462 40.0247 18.6412 40.0247Z" fill="white"/>
<path d="M6.22253 14.9941C6.22253 14.3991 6.22253 13.8637 6.22253 13.2837C8.86987 13.2837 11.5023 13.2837 14.1646 13.2837C14.1646 13.834 14.1646 14.3991 14.1646 14.9941C11.5321 14.9941 8.89962 14.9941 6.22253 14.9941Z" fill="white"/>
<path d="M6.16298 4.38965C6.16298 4.96968 6.16298 5.5051 6.16298 6.10001C5.59781 6.10001 5.04752 6.10001 4.43774 6.10001C4.43774 5.53485 4.43774 4.98456 4.43774 4.38965C5.00291 4.38965 5.5532 4.38965 6.16298 4.38965Z" fill="white"/>
<path d="M9.71756 4.38965C9.71756 4.95481 9.71756 5.5051 9.71756 6.10001C9.1524 6.10001 8.60211 6.10001 8.0072 6.10001C8.0072 5.54972 8.0072 4.98456 8.0072 4.38965C8.55749 4.38965 9.10778 4.38965 9.71756 4.38965Z" fill="white"/>
<path d="M11.5618 4.37476C12.1418 4.37476 12.6921 4.37476 13.2721 4.37476C13.2721 4.93992 13.2721 5.50508 13.2721 6.09999C12.707 6.09999 12.1567 6.09999 11.5618 6.09999C11.5618 5.53483 11.5618 4.98454 11.5618 4.37476Z" fill="white"/>
</svg>
