<svg width="53" height="55" viewBox="0 0 53 55" fill="none" xmlns="http://www.w3.org/2000/svg">
<path d="M22.8469 0.493164C25.1689 0.493164 27.4793 0.493164 29.8012 0.493164C29.9754 0.524895 30.1379 0.567204 30.3121 0.577781C31.9026 0.694129 33.5048 0.778746 35.0953 0.926825C38.706 1.26529 42.2587 1.85761 45.6952 2.94705C47.4715 3.50764 49.1665 4.20572 50.6062 5.34805C51.7904 6.28941 52.4057 7.42116 52.4057 8.89137C52.3825 21.3618 52.3825 33.8322 52.3941 46.3025C52.3941 47.4872 51.9413 48.4603 51.0473 49.2853C49.689 50.5545 47.9939 51.2949 46.2176 51.8978C41.3995 53.5267 36.3608 54.119 31.2641 54.4152C27.0961 54.6479 22.9282 54.595 18.7718 54.2248C14.8825 53.8863 11.0512 53.3257 7.33608 52.2046C5.40884 51.6228 3.55125 50.9036 1.99553 49.6555C0.846146 48.7353 0.242432 47.6141 0.242432 46.1545C0.265651 33.737 0.265651 21.3195 0.242432 8.90195C0.242432 7.42116 0.857756 6.28941 2.03036 5.35863C3.41193 4.26919 5.03732 3.58167 6.73236 3.03167C11.0164 1.63549 15.463 1.04317 19.9793 0.704706C20.9313 0.641243 21.8949 0.567204 22.8469 0.493164ZM3.7254 38.1053C3.7254 38.7082 3.76023 39.2159 3.71379 39.7236C3.66735 40.2313 3.86472 40.6332 4.3059 40.9082C4.99088 41.3313 5.66425 41.7756 6.4189 42.0823C10.076 43.5631 13.9769 44.1131 17.9011 44.5256C18.9924 44.6419 20.0837 44.716 21.2215 44.8112C21.1402 45.89 21.059 46.9266 20.9777 47.9843C14.9986 47.5295 9.15883 46.916 3.71379 44.4621C3.71379 45.0227 3.76023 45.5198 3.70218 46.0064C3.63252 46.6939 3.94599 47.191 4.5497 47.4978C5.46689 47.9737 6.38407 48.4709 7.37091 48.8199C12.1077 50.4593 17.0768 51.0199 22.0923 51.2738C26.2486 51.4853 30.3933 51.369 34.5265 50.967C37.7192 50.6603 40.8655 50.1632 43.9189 49.2641C45.4398 48.8093 46.9374 48.291 48.2145 47.3603C48.6905 47.0112 48.9343 46.5987 48.9227 46.0064C48.8879 43.5842 48.9111 41.1515 48.9111 38.7188C48.9111 38.539 48.8995 38.3486 48.8879 38.1265C48.3887 38.3486 47.9591 38.539 47.5295 38.7188C47.0768 38.8986 46.6124 39.0784 46.1364 39.237C41.2138 40.8342 36.0938 41.3736 30.9274 41.6592C27.3167 41.8602 23.706 41.8707 20.107 41.5429C17.2858 41.289 14.4762 40.9611 11.6898 40.5275C8.96146 40.0938 6.3028 39.3534 3.7254 38.1053ZM48.8995 25.5503C47.634 26.0051 46.4034 26.5128 45.1263 26.883C39.7509 28.4484 34.1898 28.9244 28.5938 29.083C23.6712 29.2205 18.7602 28.9667 13.8841 28.2475C10.4591 27.7292 7.08066 27.0205 3.9576 25.5397C3.89955 25.508 3.82989 25.5186 3.7254 25.508C3.7254 26.0686 3.76023 26.5974 3.71379 27.1263C3.67896 27.6657 3.91116 28.0676 4.37556 28.3321C5.02571 28.7128 5.66425 29.1042 6.37246 29.3898C10.0528 30.86 13.9537 31.4523 17.9127 31.8542C19.004 31.96 20.0954 32.0446 21.2331 32.1398C21.1519 33.2187 21.0706 34.2552 20.9893 35.4399C17.9591 35.0485 15.0334 34.7206 12.131 34.2764C9.22849 33.8322 6.40729 33.06 3.7254 31.7802C3.7254 32.3619 3.77184 32.8485 3.71379 33.335C3.64413 34.0225 3.94599 34.5197 4.56131 34.8264C5.44367 35.2812 6.33763 35.7466 7.28964 36.0745C12.0149 37.6928 16.9607 38.2322 21.9646 38.4967C26.2138 38.7188 30.4514 38.613 34.689 38.2005C37.9862 37.8726 41.2602 37.4072 44.3949 36.3812C45.6836 35.9581 46.9142 35.3447 48.1449 34.7735C48.586 34.562 48.9343 34.2129 48.9343 33.6841C48.9343 31.0292 48.9343 28.3744 48.9343 25.7195C48.9227 25.6455 48.8995 25.582 48.8995 25.5503ZM3.7254 12.8366C3.7254 13.3761 3.76023 13.8943 3.71379 14.4126C3.66735 14.9944 3.91116 15.428 4.4336 15.6924C5.3624 16.179 6.29119 16.6973 7.28964 17.0569C11.0745 18.4108 15.0567 18.929 19.0737 19.2887C19.7819 19.3521 20.4901 19.3944 21.2331 19.4579C21.1519 20.5368 21.0822 21.5627 21.0009 22.6416C15.0334 22.1974 9.18205 21.5733 3.7254 19.13C3.7254 19.7117 3.76023 20.2194 3.71379 20.7271C3.65574 21.3512 3.93438 21.8166 4.48004 22.1022C5.37401 22.5676 6.27958 23.0647 7.2432 23.3926C12.0033 25.0214 16.9955 25.5714 22.0226 25.8253C26.2486 26.0474 30.4746 25.9311 34.689 25.5291C37.7772 25.233 40.8306 24.757 43.8028 23.9108C45.3121 23.4772 46.7981 22.9906 48.0984 22.1339C48.6557 21.7743 48.9343 21.3406 48.9227 20.6743C48.8879 18.2521 48.9111 15.8194 48.9111 13.3972C48.9111 13.2174 48.9111 13.027 48.9111 12.8578C47.7153 13.2914 46.5891 13.7674 45.4282 14.1165C39.9715 15.7559 34.3175 16.2636 28.617 16.4223C24.2169 16.5386 19.8167 16.3482 15.4514 15.7982C12.5141 15.428 9.60001 14.9203 6.79041 14.0001C5.78035 13.6616 4.79351 13.2386 3.7254 12.8366ZM26.2254 13.1751C27.4444 13.1751 28.6519 13.2068 29.8709 13.1645C33.6905 13.0587 37.4986 12.7097 41.2138 11.8741C43.0946 11.451 44.9057 10.8058 46.7285 10.1924C47.2973 10.002 47.8082 9.64235 48.2842 9.2933C49.1085 8.70099 49.0969 8.32021 48.2726 7.71732C47.8082 7.37885 47.309 7.04038 46.7749 6.83942C45.463 6.3423 44.1511 5.82402 42.7811 5.47497C38.4158 4.33265 33.946 3.90956 29.4181 3.75091C23.9963 3.54994 18.6209 3.81437 13.292 4.73458C10.8074 5.14708 8.35775 5.71825 6.0706 6.73365C5.37401 7.05096 4.71224 7.46347 4.10853 7.91828C3.57447 8.32021 3.59769 8.70099 4.12014 9.12407C4.59614 9.50485 5.11859 9.88562 5.68747 10.0866C7.46379 10.7001 9.2401 11.3453 11.0745 11.7789C16.0435 12.9318 21.1286 13.2174 26.2254 13.1751Z" fill="white"/>
<path d="M28.0251 48.0795C26.8873 48.0795 25.7728 48.0795 24.635 48.0795C24.635 47.0323 24.635 46.0169 24.635 44.9592C25.7728 44.9592 26.8757 44.9592 28.0251 44.9592C28.0251 45.9852 28.0251 47.0112 28.0251 48.0795Z" fill="white"/>
<path d="M28.0485 32.3091C28.0485 33.3456 28.0485 34.3505 28.0485 35.3976C26.9107 35.3976 25.7845 35.3976 24.6235 35.3976C24.6235 34.3716 24.6235 33.3668 24.6235 32.3091C25.7381 32.3091 26.8526 32.3091 28.0485 32.3091Z" fill="white"/>
<path d="M28.0252 22.7368C26.8759 22.7368 25.7613 22.7368 24.6235 22.7368C24.6235 21.7002 24.6235 20.6954 24.6235 19.6377C25.7381 19.6377 26.8642 19.6377 28.0252 19.6377C28.0252 20.6531 28.0252 21.6791 28.0252 22.7368Z" fill="white"/>
</svg>
