<svg xmlns="http://www.w3.org/2000/svg" width="49" height="55" viewBox="0 0 49 55" fill="none"><path d="M23.7911 54.0044C19.9695 52.1014 16.148 50.1984 12.3264 48.2955C11.4472 47.8608 10.5801 47.4145 9.69493 46.9974C8.55264 46.4571 8.03831 45.5643 8.04429 44.3368C8.05625 42.4749 8.04429 40.6131 8.04429 38.7453C8.04429 36.4312 8.04429 34.1112 8.04429 31.7971C8.04429 29.1834 8.05625 26.5698 8.03233 23.9502C8.02635 23.2865 8.27753 22.893 8.88755 22.5935C13.3311 20.4145 17.7567 18.2061 22.1943 16.0153C22.5292 15.8508 22.8761 15.7099 23.2349 15.5572C23.2349 12.967 23.2349 10.3709 23.2349 7.69855C22.7445 7.69855 22.2661 7.70443 21.7876 7.69855C20.7769 7.68681 20.149 7.08185 20.143 6.08924C20.137 4.5974 20.137 3.09968 20.143 1.60784C20.149 0.615238 20.7769 0.0102784 21.7936 0.00440505C23.3127 -0.00146835 24.8377 -0.00146835 26.3568 0.00440505C27.3316 0.0102784 27.9715 0.632858 27.9775 1.59022C27.9895 3.09968 27.9895 4.61502 27.9775 6.12448C27.9715 7.0701 27.3256 7.68681 26.3448 7.69855C25.8783 7.70443 25.4178 7.69855 24.9095 7.69855C24.8915 7.84539 24.8676 7.98048 24.8676 8.10969C24.8676 10.4649 24.8616 12.8202 24.8796 15.1754C24.8796 15.3398 24.9932 15.5924 25.1248 15.657C27.3555 16.7671 29.5982 17.8478 31.835 18.9461C34.293 20.156 36.739 21.3894 39.209 22.5817C39.819 22.8754 40.0882 23.2513 40.0702 23.9267C40.0224 26.0882 39.9984 28.2496 39.9984 30.411C39.9984 32.3609 40.0463 34.3109 40.0582 36.2609C40.0702 38.8922 40.0343 41.5293 40.0702 44.1606C40.0882 45.5526 39.514 46.463 38.2402 47.0855C33.6351 49.3351 29.048 51.6257 24.455 53.8987C24.4071 53.9222 24.3712 53.9633 24.3294 53.9927C24.15 54.0044 23.9705 54.0044 23.7911 54.0044ZM10.7116 23.5039C10.8791 23.6037 10.9508 23.6566 11.0226 23.6918C15.2569 25.7945 19.4971 27.8972 23.7433 29.9822C23.9346 30.0762 24.2636 30.041 24.4609 29.9411C28.6114 27.8972 32.75 25.8415 36.8885 23.7858C37.0381 23.7094 37.1816 23.6213 37.3969 23.5039C33.1806 21.4129 29.048 19.369 24.8616 17.2898C24.8616 17.7656 24.8736 18.1532 24.8616 18.535C24.8437 19.0636 24.5207 19.4042 24.0602 19.4101C23.5997 19.4101 23.2708 19.0694 23.2588 18.5467C23.2469 18.1532 23.2588 17.7597 23.2588 17.2898C19.0425 19.369 14.9219 21.4129 10.7116 23.5039ZM24.8616 51.9135C25.8544 51.426 26.7754 50.9737 27.6904 50.5156C31.0216 48.8652 34.3468 47.2089 37.684 45.5643C38.1863 45.3177 38.4435 44.9887 38.4196 44.4132C38.3837 43.6966 38.4136 42.9742 38.4136 42.2517C38.4136 41.4001 38.4136 40.5426 38.4136 39.6263C38.1624 39.7379 37.989 39.8084 37.8155 39.8906C36.6673 40.4604 35.525 41.0359 34.3707 41.5939C33.7846 41.8817 33.354 41.7819 33.1208 41.3414C32.8756 40.8891 33.067 40.478 33.665 40.1608C33.7308 40.1256 33.7906 40.0962 33.8564 40.0668C35.1123 39.4384 36.3623 38.7982 37.6361 38.1991C38.2162 37.9289 38.4495 37.553 38.4256 36.9187C38.3837 35.7616 38.4136 34.5987 38.4136 33.4416C38.4136 33.0599 38.4136 32.684 38.4136 32.2435C38.2461 32.3081 38.1504 32.3316 38.0607 32.3786C33.7727 34.5047 29.4906 36.6309 25.1965 38.7453C24.9274 38.8804 24.8557 39.039 24.8616 39.3209C24.8736 40.9361 24.8676 42.5513 24.8676 44.1723C24.8676 44.2663 24.8856 44.3603 24.8975 44.5071C26.584 43.6731 28.2048 42.8685 29.8315 42.0697C30.0229 41.9757 30.2382 41.8054 30.4116 41.8289C30.7166 41.8758 31.0695 41.9816 31.2728 42.1813C31.53 42.4397 31.4702 42.8156 31.201 43.0858C31.0575 43.2326 30.8601 43.3383 30.6747 43.4323C29.1138 44.2135 27.5828 45.0475 25.98 45.7347C25.0949 46.1164 24.7779 46.5863 24.8437 47.5319C24.9334 48.965 24.8616 50.404 24.8616 51.9135ZM23.2529 37.1301C23.2529 35.2859 23.2648 33.5474 23.2349 31.8088C23.2349 31.6503 23.0077 31.4388 22.8342 31.3507C18.6299 29.2539 14.4196 27.1689 10.2093 25.0838C10.0657 25.0133 9.91023 24.9487 9.70091 24.8547C9.70091 26.5169 9.71287 28.0792 9.69493 29.6474C9.68895 30.1937 9.89827 30.5343 10.3947 30.7693C11.3755 31.2333 12.3443 31.7207 13.3132 32.2082C13.8753 32.496 14.0488 32.9189 13.8155 33.3594C13.5823 33.7941 13.1338 33.8998 12.5596 33.6237C11.9795 33.3477 11.4113 33.054 10.8372 32.7721C10.4844 32.5959 10.1255 32.4314 9.70091 32.2259C9.70091 33.8587 9.72483 35.3857 9.68895 36.9128C9.67101 37.5706 9.92817 37.9348 10.5202 38.2226C14.593 40.2195 18.6538 42.2459 22.7206 44.2663C22.8761 44.3427 23.0376 44.4014 23.2529 44.4954C23.2529 42.751 23.2409 41.0712 23.2648 39.3914C23.2708 39.039 23.1512 38.8687 22.8342 38.716C20.6752 37.6646 18.5282 36.5898 16.3752 35.5208C16.1719 35.421 15.9566 35.3153 15.7831 35.1626C15.4961 34.9159 15.3944 34.5458 15.6336 34.2698C15.819 34.0525 16.1659 33.9233 16.4649 33.8469C16.6204 33.8058 16.8297 33.9526 17.0032 34.0407C18.6299 34.8454 20.2566 35.6559 21.8833 36.4606C22.3079 36.6661 22.7326 36.8776 23.2529 37.1301ZM9.70091 39.6263C9.70091 41.2474 9.72483 42.7745 9.68895 44.3016C9.67101 44.9535 9.92219 45.3235 10.5143 45.6113C14.599 47.6142 18.6718 49.6522 22.7445 51.6727C22.894 51.749 23.0555 51.8136 23.2529 51.9017C23.2529 50.1573 23.2409 48.4893 23.2648 46.8212C23.2708 46.4277 23.1333 46.2457 22.7804 46.0753C18.6 44.0196 14.4315 41.9463 10.2571 39.873C10.1016 39.7967 9.94013 39.7321 9.70091 39.6263ZM38.4076 24.843C38.1146 24.984 37.9112 25.0779 37.7079 25.1778C33.9461 27.0396 30.1903 28.9074 26.4345 30.7693C25.9262 31.0218 25.2264 31.1686 24.9753 31.5798C24.7121 32.0085 24.8736 32.6957 24.8676 33.2713C24.8616 34.5282 24.8676 35.7851 24.8676 37.1301C25.974 36.5839 27.0027 36.0729 28.0373 35.5619C31.2549 33.9703 34.4724 32.3727 37.6899 30.781C38.0727 30.5931 38.4136 30.3757 38.4136 29.8941C38.4136 28.2437 38.4076 26.5933 38.4076 24.843ZM21.7697 6.08337C23.3246 6.08337 24.8317 6.08337 26.3388 6.08337C26.3388 4.57391 26.3388 3.10556 26.3388 1.61959C24.8018 1.61959 23.3007 1.61959 21.7697 1.61959C21.7697 3.1173 21.7697 4.58565 21.7697 6.08337Z" fill="white"></path><path d="M11.6568 9.86086C10.1616 9.67878 9.74897 9.21478 9.74897 7.75818C9.74897 7.2472 9.73701 6.74208 9.74897 6.2311C9.77887 5.14452 10.4008 4.54543 11.4953 4.53956C12.1771 4.53369 12.8529 4.53369 13.5347 4.53956C14.4198 4.55131 15.0537 5.06229 15.1255 5.92568C15.1913 6.74208 15.1913 7.57611 15.1315 8.39251C15.0597 9.32051 14.4676 9.75514 13.2655 9.82562C13.2655 10.0371 13.2655 10.2544 13.2655 10.4717C13.2655 11.4525 13.2715 12.4393 13.2655 13.4201C13.2596 13.984 12.9366 14.3364 12.4582 14.3305C11.9797 14.3246 11.6687 13.9781 11.6627 13.4084C11.6508 12.2278 11.6568 11.0414 11.6568 9.86086ZM11.4355 8.20456C12.1292 8.20456 12.7931 8.20456 13.4749 8.20456C13.4749 7.50563 13.4749 6.83606 13.4749 6.16062C12.7751 6.16062 12.1053 6.16062 11.4355 6.16062C11.4355 6.85368 11.4355 7.51737 11.4355 8.20456Z" fill="white"></path><path d="M34.8492 9.85302C33.372 9.68856 32.9414 9.21282 32.9414 7.79733C32.9414 7.2511 32.9294 6.70488 32.9474 6.16452C32.9833 5.14255 33.6172 4.54934 34.6578 4.54347C35.3396 4.53759 36.0154 4.53759 36.6972 4.54347C37.6361 4.55521 38.2641 5.08969 38.3239 6.00594C38.3777 6.77536 38.3777 7.55652 38.3299 8.32593C38.2701 9.29504 37.7438 9.70031 36.464 9.85889C36.464 10.8867 36.464 11.9146 36.464 12.9483C36.464 13.1421 36.4699 13.3359 36.458 13.5298C36.4281 14.0173 36.0991 14.3403 35.6506 14.3403C35.2021 14.3403 34.8671 14.0114 34.8612 13.5239C34.8492 12.5019 34.8552 11.4858 34.8552 10.4638C34.8492 10.2759 34.8492 10.0821 34.8492 9.85302ZM34.6279 6.14103C34.6279 6.85171 34.6279 7.51541 34.6279 8.20259C35.3217 8.20259 35.9855 8.20259 36.6673 8.20259C36.6673 7.50366 36.6673 6.82822 36.6673 6.14103C35.9795 6.14103 35.3276 6.14103 34.6279 6.14103Z" fill="white"></path><path d="M46.6606 29.7363C46.6606 31.8449 46.6606 33.9476 46.6606 36.0561C46.6606 36.2323 46.6786 36.4144 46.6367 36.5789C46.541 36.9841 46.2659 37.2308 45.8353 37.2191C45.3868 37.2014 45.1117 36.9489 45.0579 36.5025C45.0459 36.3968 45.0459 36.2911 45.0459 36.1853C45.0459 31.8684 45.0459 27.5514 45.0459 23.2345C45.0459 23.1288 45.0459 23.0231 45.0579 22.9173C45.1177 22.4945 45.3808 22.2595 45.8054 22.236C46.236 22.2125 46.5171 22.4416 46.6248 22.841C46.6666 23.0054 46.6547 23.1875 46.6547 23.3637C46.6607 25.4899 46.6606 27.6102 46.6606 29.7363Z" fill="white"></path><path d="M3.06238 29.755C3.06238 31.934 3.06837 34.1072 3.06238 36.2862C3.06238 36.9558 2.566 37.3845 2.01579 37.1907C1.63901 37.0556 1.45361 36.7796 1.45361 36.3802C1.45361 31.9399 1.45361 27.4996 1.45959 23.0593C1.45959 22.5366 1.81245 22.2135 2.29089 22.2312C2.75738 22.2488 3.0564 22.5836 3.06238 23.1239C3.06837 25.3323 3.06238 27.5466 3.06238 29.755Z" fill="white"></path><path d="M1.45973 15.7795C0.383226 15.4153 0.0602752 14.969 0.0602752 13.8648C0.0602752 13.5652 0.0542947 13.2657 0.0602752 12.972C0.0782169 12.0851 0.700195 11.4508 1.60326 11.4156C2.0518 11.3979 2.50034 11.3979 2.94291 11.4156C3.81607 11.4567 4.43207 12.0851 4.45599 12.9485C4.46197 13.2833 4.45599 13.6181 4.45599 13.947C4.45599 14.9631 4.08519 15.4623 3.06252 15.7677C3.06252 16.9424 3.06252 18.1347 3.06252 19.327C3.06252 19.4856 3.06252 19.6442 3.06252 19.8028C3.05056 20.3666 2.75153 20.7249 2.27308 20.7366C1.7767 20.7425 1.45973 20.3784 1.45973 19.7675C1.45375 18.6105 1.45973 17.4534 1.45973 16.2905C1.45973 16.1201 1.45973 15.9439 1.45973 15.7795ZM2.83526 13.0307C2.4226 13.0307 2.07572 13.0307 1.71091 13.0307C1.71091 13.4125 1.71091 13.7708 1.71091 14.0997C2.11759 14.0997 2.47642 14.0997 2.83526 14.0997C2.83526 13.7297 2.83526 13.4008 2.83526 13.0307Z" fill="white"></path><path d="M45.0458 15.774C44.0052 15.445 43.6524 14.9693 43.6524 13.9415C43.6524 13.6067 43.6464 13.2719 43.6584 12.943C43.6883 12.0737 44.2923 11.457 45.1714 11.41C45.614 11.3865 46.0625 11.3924 46.5111 11.41C47.4141 11.4453 48.0361 12.0796 48.0601 12.9665C48.066 13.266 48.0601 13.5656 48.0601 13.8592C48.0601 14.9517 47.7431 15.3981 46.6666 15.7857C46.6666 17.0544 46.6666 18.3348 46.6666 19.6152C46.6666 19.7737 46.6785 19.9382 46.6427 20.085C46.535 20.5197 46.236 20.7546 45.7874 20.7135C45.3449 20.6724 45.0638 20.4081 45.0578 19.9499C45.0458 18.8105 45.0518 17.6711 45.0518 16.5316C45.0458 16.2849 45.0458 16.0441 45.0458 15.774ZM45.291 14.1118C45.6798 14.1118 46.0386 14.1118 46.4154 14.1118C46.4154 13.7418 46.4154 13.4011 46.4154 13.037C46.0267 13.037 45.6678 13.037 45.291 13.037C45.291 13.4129 45.291 13.7535 45.291 14.1118Z" fill="white"></path><path d="M45.0581 41.1352C45.0581 40.7828 45.0402 40.4304 45.0641 40.0838C45.094 39.6375 45.3631 39.379 45.8177 39.3497C46.2542 39.3203 46.631 39.614 46.649 40.0662C46.6789 40.8004 46.6789 41.5405 46.6549 42.2805C46.637 42.7269 46.2662 43.0382 45.8416 43.0264C45.423 43.0205 45.088 42.6975 45.0641 42.2453C45.0402 41.8752 45.0522 41.5052 45.0581 41.1352Z" fill="white"></path><path d="M3.0623 41.2193C3.0623 41.5717 3.08024 41.9241 3.05632 42.2707C3.02641 42.717 2.67356 43.0342 2.25492 43.0283C1.8303 43.0225 1.48343 42.7053 1.46549 42.253C1.44754 41.5365 1.44156 40.8141 1.46549 40.0916C1.47745 39.6394 1.8303 39.3398 2.26688 39.3398C2.69748 39.3457 3.03239 39.6511 3.05632 40.1034C3.08024 40.4793 3.0623 40.8493 3.0623 41.2193Z" fill="white"></path><path d="M13.2655 16.9332C13.2655 17.1446 13.2775 17.356 13.2655 17.5616C13.2297 18.0374 12.8888 18.3604 12.4462 18.3487C12.0216 18.3369 11.6927 18.0256 11.6687 17.5734C11.6508 17.1387 11.6508 16.6982 11.6687 16.2636C11.6927 15.8113 12.0216 15.5118 12.4582 15.5118C12.8947 15.5059 13.2237 15.8055 13.2655 16.2519C13.2775 16.475 13.2596 16.7041 13.2655 16.9332Z" fill="white"></path><path d="M34.8551 16.9335C34.8551 16.7044 34.8372 16.4753 34.8551 16.2522C34.891 15.8058 35.1482 15.5473 35.6027 15.518C36.0632 15.4886 36.3802 15.7353 36.428 16.1641C36.4878 16.6633 36.4819 17.1802 36.428 17.6794C36.3802 18.1082 36.0632 18.3666 35.6087 18.3431C35.1661 18.3196 34.891 18.0612 34.8492 17.6148C34.8432 17.3857 34.8551 17.1567 34.8551 16.9335Z" fill="white"></path><path d="M24.8619 22.5884C24.8619 22.9408 24.8738 23.2932 24.8559 23.6397C24.8319 24.1331 24.509 24.462 24.0664 24.4679C23.6239 24.4737 23.271 24.1448 23.2591 23.6632C23.2411 22.9584 23.2411 22.2595 23.2591 21.5547C23.271 21.0965 23.6059 20.7911 24.0425 20.7852C24.4791 20.7794 24.82 21.0789 24.8499 21.5312C24.8798 21.8836 24.8619 22.236 24.8619 22.5884Z" fill="white"></path></svg>