<svg xmlns="http://www.w3.org/2000/svg" width="30" height="21" viewBox="0 0 30 21" fill="none"><path d="M0 8.96167C0.376174 7.44035 1.52341 6.67761 2.84833 6.12374C4.92664 5.25397 7.10367 5.09601 9.31603 5.35684C10.0673 5.44517 10.8051 5.65092 11.5492 5.79952C11.6313 5.81615 11.73 5.84213 11.7986 5.81303C12.605 5.47531 13.4446 5.27994 14.3455 5.20928C14.3455 5.10225 14.3507 5.00872 14.3445 4.9152C14.2634 3.70562 14.8339 2.83065 15.7681 2.14481C16.7657 1.41221 17.9057 1.00486 19.1038 0.762735C21.2507 0.328368 23.3956 0.356425 25.5175 0.924843C26.7874 1.26569 27.9761 1.77487 28.8864 2.77766C29.3717 3.31282 29.617 3.93943 29.6159 4.66996C29.6097 8.45768 29.5931 12.2464 29.6253 16.0342C29.6357 17.223 29.1358 18.0844 28.2245 18.7619C27.1157 19.585 25.8396 20.0027 24.4991 20.2355C22.3418 20.6106 20.2033 20.5264 18.0927 19.9092C17.9421 19.8655 17.7467 19.8728 17.6002 19.9289C15.7359 20.6314 13.8779 20.6304 12.0126 19.93C11.8516 19.8697 11.6365 19.879 11.465 19.9258C8.80685 20.6594 6.15804 20.6574 3.52066 19.8344C2.69765 19.5777 1.92971 19.2005 1.25114 18.6591C0.615178 18.152 0.170422 17.5202 0 16.7127C0 14.1284 0 11.545 0 8.96167ZM14.8142 6.11335C11.0816 6.13829 8.07736 9.1456 8.09295 12.8429C8.10749 16.5558 11.1439 19.5694 14.8433 19.5455C18.5531 19.5205 21.5459 16.4831 21.5188 12.7691C21.4929 9.09676 18.4637 6.08945 14.8142 6.11335ZM21.9781 7.65961C23.2386 7.64402 24.4773 7.49542 25.6796 7.1099C26.5951 6.81686 27.4607 6.42717 28.1424 5.71951C28.8677 4.96716 28.901 4.06725 28.1507 3.34192C27.7361 2.94184 27.2352 2.601 26.7188 2.34121C25.5341 1.74474 24.2466 1.51093 22.93 1.42364C21.1406 1.30413 19.3906 1.47663 17.7093 2.12922C16.8936 2.44617 16.1319 2.85559 15.5998 3.58404C15.2735 4.03088 15.153 4.5224 15.3909 5.05029C15.4294 5.1355 15.5447 5.23214 15.6341 5.24253C17.4121 5.44829 18.9272 6.19024 20.2043 7.43827C20.2729 7.50478 20.3851 7.55362 20.4818 7.56089C20.9795 7.60246 21.4793 7.62844 21.9781 7.65961ZM10.5557 6.4968C10.4352 6.46146 10.3666 6.43445 10.2939 6.42094C8.3465 6.04061 6.40432 6.05515 4.47668 6.53628C3.46974 6.78776 2.5106 7.15978 1.71045 7.84978C0.65571 8.758 0.658826 9.81274 1.70941 10.721C1.73123 10.7397 1.75306 10.7584 1.77592 10.776C3.36583 11.9939 5.22799 12.2953 7.19511 12.4044C7.26578 11.2011 7.59207 10.0902 8.17504 9.06559C8.75904 8.03994 9.54672 7.19095 10.5557 6.4968ZM19.0571 19.2026C19.0966 19.2192 19.1298 19.24 19.1651 19.2472C21.3536 19.7003 23.5275 19.6629 25.6734 19.0103C26.591 18.7308 27.4545 18.3297 28.1383 17.6241C28.6059 17.1409 28.7898 16.5662 28.6464 16.0664C28.6215 16.0809 28.5944 16.0913 28.5747 16.11C27.4909 17.0588 26.1878 17.5254 24.8057 17.8122C23.4288 18.0969 22.0384 18.1561 20.6387 18.0418C20.5264 18.0325 20.3799 18.0574 20.2989 18.1249C19.8832 18.4658 19.4842 18.8274 19.0571 19.2026ZM10.5921 19.2296C10.165 18.8586 9.78989 18.5157 9.39501 18.1987C9.28278 18.1083 9.1082 18.0345 8.96895 18.046C7.56817 18.154 6.17778 18.0969 4.8009 17.8111C3.42922 17.5264 2.13339 17.064 1.05475 16.1246C1.02357 16.0976 0.979923 16.0851 0.9342 16.0612C0.861459 16.6005 1.00174 17.0546 1.32908 17.4557C1.86528 18.1104 2.58022 18.5022 3.3492 18.7994C5.23215 19.5268 7.18472 19.6691 9.1747 19.4561C9.63817 19.4052 10.0975 19.3096 10.5921 19.2296ZM21.1375 17.1357C21.1676 17.1461 21.1925 17.1606 21.2175 17.1616C22.7596 17.2344 24.2799 17.1055 25.7544 16.6234C26.6388 16.3334 27.4774 15.95 28.1383 15.2621C28.5664 14.8163 28.7763 14.2957 28.6693 13.6379C28.6048 13.6846 28.5581 13.7137 28.5165 13.7501C27.7091 14.4567 26.7531 14.8734 25.7388 15.1748C24.5677 15.5229 23.3675 15.6725 22.1475 15.686C22.0457 15.6871 21.8898 15.7172 21.8503 15.7858C21.5989 16.2233 21.3744 16.6774 21.1375 17.1357ZM8.49302 17.1606C8.25921 16.7159 8.03475 16.3147 7.83731 15.9012C7.75937 15.737 7.66481 15.6902 7.49024 15.6757C6.64852 15.6071 5.79849 15.5697 4.9682 15.4263C3.53209 15.1789 2.18015 14.6947 1.05475 13.7158C1.02357 13.6888 0.978883 13.6774 0.93316 13.6545C0.878085 14.384 1.01318 14.8194 1.51405 15.2912C1.80501 15.5655 2.12819 15.8232 2.47735 16.0155C4.34471 17.0421 6.37626 17.2406 8.49302 17.1606ZM21.1645 8.55848C21.3858 8.99077 21.6051 9.39396 21.7984 9.80859C21.8722 9.96758 21.9615 10.0102 22.1267 10.0081C23.3477 9.99356 24.548 9.83768 25.7108 9.46255C26.6055 9.17366 27.4555 8.79021 28.1258 8.09917C28.5466 7.66481 28.7711 7.1577 28.6734 6.51862C26.4663 8.30597 23.8632 8.58446 21.1645 8.55848ZM22.4478 12.395C24.0762 12.3379 25.6339 12.0646 27.0721 11.2904C27.5771 11.0182 28.0302 10.6815 28.37 10.2107C28.6568 9.81378 28.7514 9.37526 28.6672 8.87542C26.7811 10.4518 24.5324 10.8145 22.2171 10.9309C22.2972 11.4401 22.372 11.9108 22.4478 12.395ZM28.6745 11.2686C28.6007 11.3237 28.555 11.3538 28.5134 11.3902C27.7455 12.0646 26.8372 12.473 25.8739 12.7723C24.8389 13.0944 23.7748 13.2523 22.6931 13.3095C22.5944 13.3147 22.4281 13.3926 22.4146 13.4612C22.3304 13.8821 22.2805 14.3092 22.2161 14.7602C22.3138 14.7602 22.399 14.7695 22.4811 14.7591C23.3758 14.6386 24.2809 14.5669 25.1621 14.3798C26.1556 14.1689 27.0897 13.7709 27.8795 13.1006C28.4271 12.6351 28.7857 12.0771 28.6745 11.2686ZM0.93732 11.2551C0.880167 11.9472 1.01318 12.3722 1.44131 12.8149C1.64083 13.0206 1.86217 13.2139 2.09806 13.376C3.05304 14.0317 4.13376 14.3736 5.26229 14.5617C5.95956 14.6781 6.66826 14.7279 7.41437 14.8121C7.34579 14.4048 7.27202 14.0774 7.23876 13.747C7.1868 13.2274 7.2055 13.323 6.7462 13.296C5.52935 13.2243 4.33952 13.0123 3.19229 12.5862C2.37759 12.2839 1.62108 11.8755 0.93732 11.2551Z" fill="#E53E52"></path><path d="M17.5117 16.1948H12.0966V15.0286H17.5117V16.1948ZM15.9816 13.161H12.0703V12.0247H15.9816V13.161ZM14.2041 10.7385L14.3241 13.9523C14.3391 14.2848 14.2841 14.5723 14.1591 14.8148C14.0366 15.0548 13.8204 15.2523 13.5103 15.4073L12.5203 15.0286C12.6428 15.0111 12.7366 14.9473 12.8016 14.8373C12.8666 14.7273 12.9103 14.5973 12.9328 14.4473C12.9553 14.2948 12.9641 14.1498 12.9591 14.0123L12.8466 10.7385C12.8291 10.231 12.9253 9.8047 13.1353 9.45969C13.3478 9.11218 13.6366 8.85093 14.0016 8.67592C14.3666 8.49842 14.7704 8.40967 15.2129 8.40967C15.5929 8.40967 15.9329 8.46717 16.2329 8.58217C16.5354 8.69717 16.7892 8.85718 16.9942 9.06218C17.2017 9.26719 17.3529 9.50469 17.4479 9.7747C17.5454 10.0447 17.5767 10.336 17.5417 10.6485L16.2404 10.5397C16.2579 10.3122 16.2204 10.126 16.1279 9.98095C16.0379 9.83345 15.9129 9.72595 15.7529 9.65845C15.5954 9.58844 15.4266 9.55344 15.2466 9.55344C15.0616 9.55344 14.8891 9.59594 14.7291 9.68095C14.5716 9.76595 14.4441 9.89595 14.3466 10.071C14.2516 10.246 14.2041 10.4685 14.2041 10.7385Z" fill="#E53E52"></path></svg>