<svg xmlns="http://www.w3.org/2000/svg" width="26" height="26" viewBox="0 0 26 26" fill="none"><path d="M6.54107 19.4163C6.33782 19.4163 6.13575 19.4211 5.9325 19.4152C5.63826 19.4057 5.42674 19.2048 5.42201 18.9366C5.41729 18.6565 5.62881 18.4462 5.93841 18.4414C6.34373 18.4355 6.74905 18.4355 7.15437 18.4414C7.45215 18.4462 7.66013 18.6482 7.66486 18.9188C7.66958 19.1977 7.45688 19.4033 7.14846 19.4163C7.14019 19.4163 7.13191 19.4163 7.12364 19.4163C6.93103 19.4163 6.73605 19.4163 6.54107 19.4163Z" fill="#E53E52"></path><path d="M12.5104 13.855C12.7786 13.8586 13.002 14.0925 12.9913 14.3596C12.9819 14.6208 12.7621 14.8299 12.4998 14.8264C12.228 14.824 12.0082 14.5948 12.0188 14.3242C12.0271 14.0689 12.254 13.8515 12.5104 13.855Z" fill="#E53E52"></path><path d="M24.6677 25.9644C16.4455 25.9644 8.22217 25.9644 0 25.9644C0 21.39 0 16.8157 0 12.2403C0.141802 11.9732 0.362775 11.8562 0.661741 11.8976C0.873263 11.9271 1.02097 11.842 1.17105 11.692C3.70458 9.15014 6.24403 6.61306 8.78229 4.0748C9.17579 3.68248 9.37195 3.6813 9.76309 4.07126C11.2603 5.56727 12.7563 7.06329 14.2523 8.5593C14.3138 8.62075 14.3788 8.67983 14.4166 8.71528C16.2033 6.92858 17.9782 5.15486 19.7625 3.37052C19.6396 3.2488 19.4931 3.10818 19.3525 2.96165C19.0216 2.61897 19.1268 2.20656 19.5817 2.08366C20.9466 1.71498 22.3126 1.34865 23.6786 0.987058C24.0993 0.875979 24.416 1.18676 24.3037 1.60862C23.941 2.98292 23.5723 4.35604 23.1989 5.72798C23.0831 6.15457 22.6671 6.2621 22.348 5.9525C22.1921 5.80125 22.0574 5.62754 21.9687 5.52709C19.8074 7.68722 17.691 9.80362 15.5994 11.8952C15.6302 11.8952 15.72 11.8952 15.8086 11.8952C18.6576 11.8952 21.5067 11.8952 24.3557 11.8952C24.8568 11.8952 25.0092 12.0488 25.0092 12.5534C25.0092 16.8016 25.0068 21.0497 25.0139 25.2979C25.0151 25.5992 24.9324 25.8202 24.6677 25.9644ZM0.99616 12.8855C0.99616 16.928 0.99616 20.9516 0.99616 24.9694C4.81891 24.9694 8.62276 24.9694 12.403 24.9694C12.3628 24.6456 12.3238 24.3372 12.2824 24.0098C12.1938 24.0098 12.0981 24.0098 12.0012 24.0098C9.43694 24.0098 6.87268 24.0098 4.30843 24.0098C3.86175 24.0098 3.70222 23.8633 3.66795 23.4273C3.62068 22.8211 3.15156 22.3472 2.55008 22.2976C2.09276 22.2598 1.95451 22.1097 1.95451 21.6453C1.95451 19.8385 1.95451 18.0317 1.95451 16.2249C1.95451 15.7475 2.08567 15.6069 2.56544 15.5643C3.13974 15.5135 3.61478 15.0397 3.66559 14.4677C3.70931 13.9762 3.84639 13.8521 4.34742 13.8521C6.27711 13.8521 8.20681 13.8521 10.1353 13.8521C10.2086 13.8521 10.283 13.8485 10.3551 13.8568C10.6056 13.8863 10.79 14.0884 10.7935 14.333C10.7971 14.5753 10.6174 14.7868 10.3693 14.8222C10.2889 14.8341 10.2074 14.8293 10.1259 14.8293C8.38406 14.8293 6.64107 14.8293 4.89927 14.8293C4.80237 14.8293 4.70547 14.8293 4.60739 14.8293C4.35924 15.705 3.80384 16.2592 2.94358 16.5014C2.94358 18.1274 2.94358 19.7451 2.94358 21.3629C3.81684 21.6087 4.36278 22.1711 4.60385 23.0137C7.29927 23.0137 9.97697 23.0137 12.6854 23.0137C12.3285 22.541 12.2387 22.0376 12.364 21.4976C10.66 21.3073 9.743 19.8905 9.98406 18.4902C10.2275 17.0804 11.5971 16.1457 12.9796 16.4234C13.6863 16.5652 14.2488 16.9315 14.634 17.5354C15.2048 18.4299 15.1799 19.3552 14.686 20.2816C14.7297 20.2911 14.7463 20.297 14.7616 20.297C15.6491 20.2982 16.5365 20.2793 17.4228 20.31C17.7276 20.3206 18.029 20.4542 18.3315 20.5333C18.3705 20.544 18.4071 20.5629 18.4804 20.5924C18.4343 20.5121 18.4095 20.4707 18.3859 20.427C17.8293 19.3977 18.4189 18.1759 19.5746 17.9785C19.7885 17.9419 20.013 17.9561 20.2316 17.9549C20.8402 17.9525 21.4476 17.9537 22.0668 17.9537C22.0668 17.4527 22.0668 16.9765 22.0668 16.4991C21.1959 16.2521 20.6464 15.692 20.4018 14.8281C20.325 14.8281 20.2612 14.8281 20.1962 14.8281C18.3894 14.8281 16.5814 14.8293 14.7746 14.827C14.439 14.827 14.2192 14.6308 14.2169 14.3437C14.2145 14.0553 14.4319 13.8521 14.7652 13.8521C16.7764 13.8497 18.7864 13.8497 20.7977 13.8521C21.1155 13.8521 21.2987 14.0234 21.3365 14.333C21.4358 15.1342 21.7737 15.471 22.5797 15.5702C22.8763 15.6069 23.0464 15.79 23.0547 16.0902C23.0606 16.2686 23.0559 16.4482 23.0559 16.6279C23.0559 17.0639 23.0559 17.5011 23.0559 17.9183C23.3997 17.9655 23.7093 18.0081 24.0201 18.0518C24.0201 16.3431 24.0201 14.6202 24.0201 12.8866C16.3427 12.8855 8.67712 12.8855 0.99616 12.8855ZM20.6121 2.81985C20.6476 2.86594 20.6665 2.89194 20.6878 2.91557C21.0895 3.34216 21.0896 3.51114 20.6701 3.93182C18.7664 5.83788 16.8615 7.74157 14.9566 9.64645C14.5548 10.0482 14.3563 10.0494 13.9581 9.65236C12.468 8.16226 10.9767 6.67333 9.48894 5.17968C9.42158 5.11232 9.38259 5.01424 9.36368 4.98352C7.01803 7.32917 4.72674 9.61927 2.44727 11.8976C2.7746 11.8976 3.13974 11.9117 3.5037 11.8905C3.6325 11.8834 3.78848 11.8231 3.87947 11.7333C5.52556 10.1002 7.16456 8.45886 8.80474 6.81868C9.16752 6.4559 9.38377 6.45708 9.75009 6.8234C11.252 8.32533 12.7539 9.82725 14.257 11.328C14.3185 11.3894 14.3835 11.4485 14.5017 11.5596C14.5643 11.4698 14.6092 11.3788 14.6777 11.3103C16.8686 9.11588 19.0618 6.92385 21.2538 4.73182C21.8139 4.1717 21.8517 4.16816 22.4757 4.67155C22.7002 3.83374 22.9223 3.00892 23.1551 2.1392C22.2842 2.37199 21.4571 2.59415 20.6121 2.81985ZM9.2786 7.81602C7.93502 9.15842 6.56545 10.528 5.20887 11.8846C7.90784 11.8846 10.6423 11.8846 13.3471 11.8846C11.987 10.5233 10.6163 9.15369 9.2786 7.81602ZM14.0727 18.9085C14.0644 18.0341 13.3542 17.344 12.4727 17.3558C11.6053 17.3676 10.9188 18.0683 10.9235 18.9369C10.9282 19.8149 11.6325 20.5085 12.5129 20.5026C13.3885 20.4967 14.081 19.79 14.0727 18.9085ZM21.5918 20.297C22.1531 20.297 22.7144 20.2994 23.2745 20.2958C23.7223 20.2934 24.0319 20.011 24.0308 19.6116C24.0308 19.2134 23.7223 18.931 23.2721 18.9298C22.1495 18.9274 21.0281 18.9274 19.9055 18.9298C19.4565 18.931 19.148 19.2146 19.1492 19.6128C19.1492 20.011 19.4588 20.2934 19.9079 20.2958C20.4692 20.2994 21.0305 20.297 21.5918 20.297ZM15.7306 22.6415C16.2919 22.6415 16.8532 22.6438 17.4133 22.6403C17.8612 22.6379 18.1696 22.3555 18.1696 21.9549C18.1684 21.5567 17.86 21.2754 17.4098 21.2742C16.2872 21.2719 15.1658 21.2719 14.0432 21.2742C13.5953 21.2754 13.2869 21.5602 13.2881 21.9584C13.2892 22.3567 13.6 22.6379 14.0467 22.6403C14.6092 22.6438 15.1693 22.6415 15.7306 22.6415ZM21.5918 22.6415C22.1531 22.6415 22.7144 22.6438 23.2745 22.6403C23.7223 22.6379 24.0319 22.3555 24.0308 21.9561C24.0308 21.5578 23.7223 21.2754 23.2721 21.2742C22.1495 21.2719 21.0281 21.2719 19.9055 21.2742C19.4565 21.2754 19.148 21.559 19.1492 21.9573C19.1504 22.3555 19.46 22.6367 19.9079 22.6391C20.4692 22.6438 21.0305 22.6415 21.5918 22.6415ZM15.7306 24.9859C16.2919 24.9859 16.8532 24.9883 17.4133 24.9847C17.8612 24.9824 18.1708 24.6988 18.1696 24.3005C18.1684 23.9023 17.86 23.6199 17.411 23.6199C16.2884 23.6175 15.1669 23.6175 14.0443 23.6199C13.5965 23.6211 13.2869 23.9047 13.2881 24.3041C13.2892 24.7023 13.5988 24.9836 14.0467 24.9859C14.608 24.9871 15.1693 24.9859 15.7306 24.9859ZM21.5646 24.9859C22.1342 24.9859 22.7025 24.9883 23.2721 24.9847C23.72 24.9824 24.0296 24.7011 24.0308 24.3029C24.0319 23.9047 23.7235 23.6199 23.2745 23.6187C22.1519 23.6163 21.0305 23.6163 19.9079 23.6187C19.4588 23.6199 19.1504 23.9011 19.1492 24.3005C19.1492 24.6988 19.4576 24.9824 19.9055 24.9847C20.4597 24.9871 21.0127 24.9859 21.5646 24.9859Z" fill="#E53E52"></path></svg>