<svg xmlns="http://www.w3.org/2000/svg" width="56" height="57" viewBox="0 0 56 57" fill="none"><path d="M32.6906 41.2605C32.9333 41.9247 33.1059 42.632 33.435 43.253C34.994 46.2066 34.9778 49.1386 33.3541 52.0437C32.847 52.9562 32.5719 53.8795 32.6582 54.9325C32.7122 55.6128 32.3022 56.0124 31.7196 56.0016C31.1585 55.9908 30.8726 55.5966 30.8025 54.9487C30.6461 53.4854 31.0992 52.211 31.8005 50.9583C33.0304 48.7499 33.0089 46.5144 31.8382 44.2735C31.6117 43.847 31.3797 43.3988 31.2718 42.9344C31.0722 42.0705 30.8403 41.1849 30.8295 40.3102C30.7809 36.5736 30.8133 32.837 30.8079 29.1004C30.8079 27.6803 30.0149 26.568 28.7796 26.2278C26.9293 25.7149 25.2138 27.054 25.2084 29.0465C25.1977 32.7236 25.2031 36.4062 25.2031 40.0834C25.2031 40.6881 25.2084 41.2929 25.2031 41.8923C25.1923 42.5348 24.8362 42.9236 24.2698 42.9236C23.7088 42.9236 23.342 42.5348 23.342 41.8869C23.3366 38.9656 23.3258 36.0444 23.3527 33.1286C23.3581 32.621 23.2341 32.2485 22.8511 31.9083C22.4896 31.5951 22.1875 31.2117 21.7937 30.7959C21.2273 32.5346 20.2509 33.782 18.6865 34.4461C18.0068 34.7377 17.2354 34.8403 16.4964 34.9591C16.1835 35.0077 16.0217 35.0725 15.9192 35.3803C15.1855 37.5293 14.4249 39.6676 13.6805 41.8167C13.4323 42.524 13.4863 43.226 13.783 43.9225C14.9859 46.725 16.1727 49.5328 17.3757 52.3298C17.7749 53.2586 17.7749 54.2251 17.7263 55.1971C17.7047 55.6722 17.2948 56.007 16.82 56.0124C16.3238 56.0178 15.8436 55.6614 15.8976 55.1701C16.0486 53.75 15.4067 52.562 14.8834 51.3309C13.9286 49.0792 12.9684 46.833 12.019 44.5759C11.5281 43.415 11.5389 42.2379 11.9542 41.0499C12.7095 38.9117 13.4485 36.7626 14.2037 34.5973C11.8032 33.3662 10.5085 31.4493 10.7998 28.7441C11.0534 26.3304 12.4991 24.7645 14.8457 23.9384C14.6946 23.771 14.5598 23.6198 14.4195 23.4794C12.936 21.9891 11.4525 20.5042 9.96907 19.0139C9.28936 18.3281 9.28936 17.9285 9.97446 17.2428C11.582 15.6337 13.1896 14.0246 14.8295 12.3831C11.6575 11.0277 10.1471 8.74908 10.9994 5.30949C11.5712 2.98223 13.6643 1.44333 16.1511 1.27594C18.5732 1.11935 20.6339 2.59886 21.7991 5.37969C21.9502 5.2393 22.0904 5.1151 22.2253 4.98011C23.725 3.479 25.2192 1.97789 26.7243 0.482185C27.3554 -0.149577 27.8248 -0.144177 28.4613 0.492984C30.3062 2.33427 32.1403 4.18636 33.9906 6.02225C34.3359 6.36243 34.6218 6.7674 34.3737 7.19938C34.201 7.50176 33.791 7.77174 33.4404 7.85814C31.6009 8.29011 30.3332 9.91001 30.4573 11.7729C30.5759 13.5926 32.0648 15.1045 33.8774 15.2449C35.7492 15.3907 37.4053 14.111 37.8423 12.2481C37.9232 11.8971 38.1983 11.5029 38.5058 11.3247C38.905 11.0925 39.3096 11.3463 39.6387 11.6757C41.4997 13.5548 43.377 15.4177 45.2435 17.2968C45.8261 17.8799 45.8261 18.3713 45.2435 18.9545C43.7492 20.461 42.2496 21.9567 40.7499 23.4578C40.6151 23.5928 40.4856 23.7332 40.313 23.9114C42.9724 24.9211 44.4991 26.7732 44.3642 29.6404C44.2401 32.3079 42.6919 33.9763 40.1403 34.8403C40.1403 35.8986 40.1403 36.984 40.1403 38.0693C40.1403 38.6363 40.1403 39.1978 40.1403 39.7648C40.1403 42.0219 38.6353 43.253 36.402 42.8696C35.0641 42.6374 33.8989 42.0813 32.8794 41.1903C32.8093 41.2119 32.7499 41.2389 32.6906 41.2605ZM23.288 29.7592C23.5847 26.3034 24.9981 24.4729 27.4256 24.2461C28.785 24.1166 30.0095 24.4513 31.0507 25.3531C32.081 26.244 32.5881 27.3996 32.7122 28.9385C33.0736 28.5335 33.2732 28.1825 33.5699 28.0043C33.8342 27.8477 34.2766 27.7559 34.5193 27.8747C34.789 28.0097 34.9563 28.4039 35.0911 28.7225C35.1666 28.9007 35.0803 29.1436 35.0803 29.3596C35.0749 31.5087 36.9198 33.2636 38.9967 33.0962C41.1761 32.918 42.6434 31.1631 42.4761 28.9439C42.3305 27.0054 40.4964 25.4935 38.4411 25.6555C37.9286 25.6933 37.4863 25.6285 37.2705 25.1209C37.0601 24.6295 37.2813 24.2353 37.6481 23.8736C39.0345 22.5074 40.3993 21.1197 41.7749 19.7428C42.3089 19.2082 42.8538 18.6845 43.3824 18.1715C41.9637 16.7514 40.6043 15.3907 39.2503 14.0354C37.0385 17.9663 32.5072 17.7395 30.3386 15.6175C29.1842 14.4889 28.5638 13.1336 28.5746 11.5083C28.5962 9.19726 29.7452 7.56655 31.6225 6.47582C30.2415 5.0935 28.8875 3.73279 27.4525 2.30187C27.35 2.43147 27.2314 2.61506 27.0857 2.76625C25.4134 4.45094 23.7304 6.12484 22.0581 7.80414C21.6535 8.20912 21.2705 8.67889 20.6124 8.4197C19.9327 8.14972 20.0513 7.54496 20.0621 6.97259C20.1107 5.02871 18.665 3.41961 16.7122 3.21442C14.8457 3.01463 13.0385 4.32675 12.7095 6.12484C12.3426 8.10652 13.4431 9.95861 15.342 10.4554C15.8544 10.5904 16.4262 10.4878 16.9495 10.6012C17.2732 10.6714 17.6832 10.8766 17.8072 11.1357C17.9313 11.3949 17.791 11.8161 17.6832 12.1401C17.6238 12.3237 17.4026 12.4533 17.2516 12.6044C15.4229 14.4349 13.5995 16.2654 11.7492 18.1121C11.9003 18.2741 12.0298 18.4145 12.1646 18.5549C13.8531 20.2504 15.5416 21.9459 17.2354 23.636C17.3865 23.7872 17.6076 23.9168 17.667 24.1004C17.7749 24.4243 17.9259 24.8401 17.8072 25.1047C17.6886 25.3639 17.2678 25.5205 16.9495 25.6447C16.7661 25.7149 16.5287 25.6285 16.313 25.6339C13.8261 25.6393 12.0405 28.0691 12.7742 30.445C13.3514 32.3079 15.1639 33.377 17.1113 32.999C18.9131 32.6534 20.1808 30.9255 20.0351 28.9979C19.9974 28.4849 20.0675 28.0691 20.5854 27.8369C21.0871 27.6101 21.4431 27.8477 21.7722 28.1933C22.2523 28.6793 22.7216 29.1706 23.288 29.7592ZM38.2685 34.9753C35.7816 34.5865 34.1633 33.2204 33.3055 30.7203C33.0358 31.1901 32.7014 31.5033 32.6906 31.8273C32.6366 33.3986 32.6258 34.9807 32.6852 36.552C32.7769 38.9764 34.6434 40.8609 37.0601 41.0445C37.7722 41.0985 38.2523 40.7529 38.2631 40.0942C38.2846 38.4041 38.2685 36.714 38.2685 34.9753Z" fill="white"></path><path d="M2.79975 4.14453C2.89685 4.18233 3.08565 4.22553 3.25288 4.31732C4.8011 5.20287 6.34391 6.08841 7.88673 6.99016C8.48012 7.33574 8.64196 7.85951 8.34526 8.35628C8.05936 8.83685 7.54149 8.96104 6.97507 8.64246C5.41067 7.75151 3.85167 6.84437 2.29267 5.94262C1.85571 5.68884 1.64533 5.31626 1.79098 4.81949C1.92045 4.38752 2.24412 4.14993 2.79975 4.14453Z" fill="white"></path><path d="M54.2523 31.9742C54.2253 32.93 53.4917 33.3349 52.8012 32.9678C52.0136 32.5466 51.253 32.0822 50.4816 31.634C49.694 31.1805 48.8956 30.7269 48.1134 30.2625C47.5146 29.9061 47.3474 29.3986 47.6387 28.9018C47.93 28.405 48.4533 28.297 49.0574 28.6426C50.5895 29.5174 52.1269 30.3867 53.6373 31.2993C53.934 31.472 54.1229 31.8284 54.2523 31.9742Z" fill="white"></path><path d="M8.50155 29.5372C8.38827 29.683 8.23722 30.0285 7.9729 30.1905C6.39231 31.1409 4.79555 32.0588 3.19339 32.966C2.67013 33.2629 2.14687 33.101 1.88254 32.6366C1.61281 32.1668 1.74768 31.6484 2.27094 31.3461C3.86231 30.4119 5.45368 29.4832 7.06123 28.576C7.71936 28.2035 8.47998 28.63 8.50155 29.5372Z" fill="white"></path><path d="M48.5663 8.82008C48.0107 8.80929 47.7086 8.5771 47.563 8.14513C47.4119 7.69155 47.5899 7.32978 47.9675 7.09219C48.6742 6.64942 49.4025 6.24444 50.1253 5.82867C50.9831 5.3319 51.8354 4.83513 52.6985 4.34916C53.3027 4.00898 53.8259 4.10617 54.1172 4.60294C54.4085 5.09431 54.2467 5.62888 53.6587 5.96906C52.1375 6.86 50.6054 7.73475 49.0734 8.6095C48.89 8.71209 48.685 8.77149 48.5663 8.82008Z" fill="white"></path><path d="M3.68442 19.5583C2.81051 19.5583 1.93661 19.5637 1.05731 19.5583C0.399183 19.5529 0.0161752 19.2128 -8.25073e-06 18.6512C-0.0161917 18.0572 0.377605 17.6955 1.0627 17.6955C2.85367 17.6901 4.63924 17.6901 6.4302 17.6955C7.07214 17.6955 7.46054 18.0626 7.46054 18.6296C7.46054 19.1912 7.06675 19.5529 6.42481 19.5583C5.51314 19.5637 4.59608 19.5583 3.68442 19.5583Z" fill="white"></path><path d="M52.2996 17.6962C53.1951 17.6962 54.0906 17.6908 54.9807 17.6962C55.6172 17.7016 56.0056 18.0742 55.9948 18.6411C55.984 19.1811 55.6064 19.5483 55.0022 19.5537C53.1735 19.5645 51.3448 19.5645 49.5161 19.5537C48.9173 19.5483 48.5397 19.1811 48.5289 18.6357C48.5235 18.0688 48.9065 17.7016 49.5484 17.6962C50.4709 17.6854 51.3879 17.6962 52.2996 17.6962Z" fill="white"></path></svg>