<svg xmlns="http://www.w3.org/2000/svg" width="25" height="26" viewBox="0 0 25 26" fill="none"><g clip-path="url(#clip0_911_6594)"><path d="M12.187 25.0981C18.8144 25.0981 24.187 19.5017 24.187 12.5981C24.187 5.69459 18.8144 0.0981445 12.187 0.0981445C5.55959 0.0981445 0.187012 5.69459 0.187012 12.5981C0.187012 19.5017 5.55959 25.0981 12.187 25.0981Z" fill="#007AB9"></path><path d="M19.3569 13.6039V18.7574H16.4886V13.9493C16.4886 12.7421 16.0744 11.9176 15.0359 11.9176C14.2433 11.9176 13.7725 12.4727 13.5646 13.0101C13.4891 13.2022 13.4696 13.4689 13.4696 13.7383V18.7572H10.6011C10.6011 18.7572 10.6396 10.6139 10.6011 9.77091H13.4698V11.0444C13.4641 11.0544 13.4559 11.0642 13.4508 11.0738H13.4698V11.0444C13.851 10.4334 14.5308 9.5599 16.055 9.5599C17.9421 9.5599 19.3569 10.8443 19.3569 13.6039ZM7.60033 5.43921C6.61912 5.43921 5.97717 6.11013 5.97717 6.99163C5.97717 7.8544 6.60051 8.54471 7.56268 8.54471H7.58129C8.58176 8.54471 9.20381 7.8544 9.20381 6.99163C9.18477 6.11013 8.58176 5.43921 7.60033 5.43921ZM6.14766 18.7574H9.01514V9.77091H6.14766V18.7574Z" fill="#F1F2F2"></path></g><defs><clipPath id="clip0_911_6594"><rect width="24" height="25" fill="white" transform="translate(0.187012 0.0982666)"></rect></clipPath></defs></svg>