<svg xmlns="http://www.w3.org/2000/svg" width="25" height="26" viewBox="0 0 25 26" fill="none"><g clip-path="url(#clip0_911_6599)"><path d="M12.187 25.0981C18.8144 25.0981 24.187 19.5017 24.187 12.5981C24.187 5.69459 18.8144 0.0981445 12.187 0.0981445C5.55959 0.0981445 0.187012 5.69459 0.187012 12.5981C0.187012 19.5017 5.55959 25.0981 12.187 25.0981Z" fill="#E53E52"></path><path d="M9.65955 13.6232C9.93283 14.031 10.2815 14.3684 10.6819 14.6125C11.0823 14.8567 11.5251 15.0019 11.9801 15.0382C12.4352 15.0746 12.892 15.0013 13.3195 14.8233C13.747 14.6454 14.1352 14.3669 14.4577 14.0067L16.3668 11.8761C16.9464 11.2063 17.2671 10.3093 17.2599 9.37819C17.2526 8.44709 16.918 7.55642 16.3281 6.89801C15.7381 6.2396 14.9401 5.86614 14.1058 5.85804C13.2716 5.84995 12.4678 6.20789 11.8677 6.85476L10.7732 8.06924" stroke="white" stroke-linecap="round" stroke-linejoin="round"></path><path d="M13.4597 11.8767C13.1864 11.469 12.8377 11.1316 12.4373 10.8874C12.037 10.6433 11.5942 10.4981 11.1391 10.4617C10.684 10.4253 10.2272 10.4986 9.79975 10.6766C9.37227 10.8546 8.98408 11.1331 8.66152 11.4932L6.75243 13.6239C6.17283 14.2936 5.85212 15.1907 5.85937 16.1218C5.86662 17.0528 6.20125 17.9435 6.79119 18.6019C7.38112 19.2603 8.17916 19.6338 9.01342 19.6419C9.84769 19.65 10.6514 19.2921 11.2515 18.6452L12.3397 17.4307" stroke="white" stroke-linecap="round" stroke-linejoin="round"></path></g><defs><clipPath id="clip0_911_6599"><rect width="24" height="25" fill="white" transform="translate(0.187012 0.0982666)"></rect></clipPath></defs></svg>