<svg xmlns="http://www.w3.org/2000/svg" width="25" height="26" viewBox="0 0 25 26" fill="none"><g clip-path="url(#clip0_911_6339)"><path d="M15.2695 16.7547C14.535 17.4892 13.5387 17.9018 12.5 17.9018C11.4612 17.9018 10.465 17.4892 9.73048 16.7547C8.99596 16.0202 8.58331 15.0239 8.58331 13.9852V5.65184C8.58331 4.61307 8.99596 3.61685 9.73048 2.88233C10.465 2.14782 11.4612 1.73517 12.5 1.73517C13.5387 1.73517 14.535 2.14782 15.2695 2.88233C16.004 3.61685 16.4166 4.61307 16.4166 5.65184V13.9852C16.4166 15.0239 16.004 16.0202 15.2695 16.7547ZM10.8501 4.00192C10.4125 4.4395 10.1666 5.033 10.1666 5.65184V13.9852C10.1666 14.604 10.4125 15.1975 10.8501 15.6351C11.2876 16.0727 11.8811 16.3185 12.5 16.3185C13.1188 16.3185 13.7123 16.0727 14.1499 15.6351C14.5875 15.1975 14.8333 14.604 14.8333 13.9852V5.65184C14.8333 5.033 14.5875 4.4395 14.1499 4.00192C13.7123 3.56433 13.1188 3.3185 12.5 3.3185C11.8811 3.3185 11.2876 3.56433 10.8501 4.00192Z" fill="#E53E52" stroke="white" stroke-width="0.5"></path><path d="M11.7083 21.1935V20.977L11.494 20.9461C9.81952 20.7044 8.28801 19.8679 7.17968 18.5896C6.07138 17.3114 5.46033 15.6769 5.45831 13.9851C5.45835 13.7752 5.54175 13.5739 5.69019 13.4254C5.83865 13.277 6.04002 13.1935 6.24998 13.1935C6.45994 13.1935 6.66131 13.277 6.80977 13.4254C6.95824 13.5739 7.04165 13.7752 7.04165 13.9852C7.04165 15.4328 7.61672 16.8212 8.64036 17.8448C9.66399 18.8685 11.0523 19.4435 12.5 19.4435C13.9476 19.4435 15.336 18.8685 16.3596 17.8448C17.3832 16.8212 17.9583 15.4328 17.9583 13.9852C17.9583 13.7752 18.0417 13.5739 18.1902 13.4254C18.3387 13.277 18.54 13.1935 18.75 13.1935C18.9599 13.1935 19.1613 13.277 19.3098 13.4254C19.4582 13.5738 19.5416 13.7751 19.5416 13.9849C19.5397 15.6768 18.9286 17.3114 17.8203 18.5896C16.7119 19.8679 15.1804 20.7044 13.5059 20.9461L13.2916 20.977V21.1935V23.3602V23.6102H13.5416H14.0625C14.2724 23.6102 14.4738 23.6936 14.6223 23.8421C14.7707 23.9905 14.8541 24.1919 14.8541 24.4019C14.8541 24.6118 14.7707 24.8132 14.6223 24.9617C14.4738 25.1101 14.2724 25.1935 14.0625 25.1935H10.9375C10.7275 25.1935 10.5262 25.1101 10.3777 24.9617C10.2292 24.8132 10.1458 24.6118 10.1458 24.4019C10.1458 24.1919 10.2292 23.9905 10.3777 23.8421C10.5262 23.6936 10.7275 23.6102 10.9375 23.6102H11.4583H11.7083V23.3602V21.1935Z" fill="#E53E52" stroke="white" stroke-width="0.5"></path></g><defs><clipPath id="clip0_911_6339"><rect width="25" height="25" fill="white" transform="translate(0 0.964355)"></rect></clipPath></defs></svg>