<svg width="37" height="34" viewBox="0 0 37 34" fill="none" xmlns="http://www.w3.org/2000/svg">
<g clip-path="url(#clip0_335_8066)">
<path d="M26.4738 11.8787C27.1361 13.1255 27.7156 14.4073 28.0231 15.7993C29.009 20.2603 28.1704 24.3359 25.4052 27.9442C23.1721 30.8582 20.2047 32.6159 16.6159 33.1782C12.5422 33.8158 8.84369 32.8004 5.63762 30.1736C2.88526 27.918 1.18869 24.979 0.657571 21.411C0.00926149 17.0527 1.0801 13.1638 3.9303 9.81638C6.15584 7.20267 8.98346 5.63269 12.3314 5.12174C16.2202 4.52782 19.7639 5.47329 22.9227 7.86647C23.0087 7.93088 23.099 7.98874 23.1871 8.04988C23.2097 8.28025 23.0237 8.38288 22.8958 8.50843C21.6228 9.75742 20.4176 11.073 19.2371 12.4093C17.7792 14.0601 16.3836 15.7666 15.0386 17.5156C14.5473 18.1543 14.6097 18.1521 13.9463 17.6793C11.7197 16.0919 9.4834 14.5176 7.25678 12.929C6.8106 12.6102 6.79555 12.6124 6.41925 12.9934C5.87845 13.5415 5.34948 14.1038 4.79256 14.6344C4.53023 14.8844 4.53668 15.0645 4.74418 15.3539C7.49654 19.1783 10.2048 23.0356 12.7809 26.9856C13.3432 27.8481 13.8872 28.7226 14.4097 29.6114C14.5903 29.9192 14.6129 29.916 14.7871 29.6081C16.9137 25.8698 19.1984 22.232 21.5744 18.6532C23.013 16.486 24.5042 14.356 26.0427 12.2609C26.1567 12.1069 26.2223 11.8776 26.4738 11.8787Z" fill="#AFEE8E"/>
<path d="M26.4735 11.8793C24.9576 13.8533 23.5491 15.9047 22.159 17.9704C19.5657 21.8221 17.0983 25.7558 14.7932 29.7932C14.7394 29.8871 14.6803 29.9766 14.6018 30.1022C14.1438 29.3565 13.7095 28.625 13.2525 27.9099C10.526 23.6399 7.61126 19.5032 4.64818 15.4014C4.38584 15.0389 4.39337 14.8522 4.71698 14.5553C5.33304 13.9908 5.92114 13.3914 6.48667 12.7746C6.72857 12.5104 6.88339 12.5388 7.14895 12.7287C9.49061 14.4057 11.8473 16.063 14.1879 17.7433C14.4825 17.9551 14.6147 17.9278 14.833 17.6406C17.394 14.2791 20.156 11.0965 23.1438 8.11817C23.1621 8.09961 23.1728 8.07341 23.1868 8.05048C24.7565 6.5482 26.3327 5.05247 28.0067 3.6681C29.3474 2.55885 30.7139 1.48673 32.1675 0.532517C32.3008 0.445175 32.4287 0.3622 32.6061 0.363292C33.892 0.370934 35.1768 0.367659 36.4723 0.367659C36.4723 0.54671 36.3261 0.59584 36.2369 0.677723C32.5825 4.01746 29.4721 7.84632 26.509 11.8073C26.495 11.8291 26.4864 11.8553 26.4735 11.8793Z" fill="#008F45"/>
</g>
<defs>
<clipPath id="clip0_335_8066">
<rect width="36" height="33" fill="white" transform="translate(0.474609 0.363281)"/>
</clipPath>
</defs>
</svg>
